<svg xmlns:xlink="http://www.w3.org/1999/xlink" xmlns="http://www.w3.org/2000/svg" width="59" height="22" viewBox="0 0 59 22" fill="none">
<path d="M11.0739 7.47648H14.3194V3.80981C14.3194 2.78579 13.845 2.26827 12.8746 2.26827H12.508C11.5484 2.26827 11.0632 2.78579 11.0632 3.80981V7.47648H11.0739ZM11.0739 9.82182L11.0847 13.8519C11.0847 14.8759 11.5699 15.3824 12.5296 15.3824H12.9501C13.9097 15.3824 14.3949 14.8759 14.3949 13.8519V11.8699H16.6053V13.7528C16.6053 16.3403 15.3761 17.6617 12.9393 17.6617H12.4541C10.0173 17.6617 8.78809 16.3513 8.78809 14.0611V4.20621C8.78809 1.31031 10.0173 0 12.4541 0H12.9393C15.3761 0 16.6053 1.31031 16.6053 3.8979L16.5945 9.81081H11.0739V9.82182Z" fill="black"/>
<path d="M20.3689 14.4577C20.9942 15.0302 21.7167 15.3496 22.4714 15.3496C23.3124 15.3496 23.7976 14.9312 23.7976 13.9402V3.69992C23.7976 2.70893 23.3124 2.29051 22.4714 2.29051C21.7167 2.29051 20.9942 2.60983 20.3689 3.1824V14.4577ZM18.083 0.198418H20.3689V1.32154C20.908 0.715935 21.8353 0.0112305 23.1615 0.0112305C25.1131 0.0112305 26.0727 1.38761 26.0727 3.43565V14.2485C26.0727 16.2965 25.1131 17.6729 23.1615 17.6729C21.8353 17.6729 20.908 17.0012 20.3689 16.4286V22.0002H18.083V0.198418Z" fill="black"/>
<path d="M32.9188 14.5568V8.86408L30.8486 9.70092C30.0076 10.0533 29.738 10.5047 29.738 11.4957V14.1163C29.738 14.9532 30.1262 15.3606 30.8486 15.3606C31.5387 15.3606 32.1748 15.1073 32.9188 14.5568ZM27.4522 11.4517C27.4522 9.30452 28.1099 8.44566 29.8566 7.80703L32.9188 6.6839V3.81003C32.9188 2.78601 32.4336 2.24647 31.474 2.24647H31.1074C30.1478 2.24647 29.6626 2.78601 29.6626 3.81003V6.25447H27.4414V3.90913C27.4414 1.32154 28.6706 0.0112305 31.1074 0.0112305H31.5387C33.9755 0.0112305 35.2047 1.32154 35.2047 3.90913V17.4747H32.9188V16.3846C32.2935 17.0232 31.4417 17.6619 30.1262 17.6619C28.2932 17.6619 27.4522 16.5388 27.4522 14.6228V11.4517Z" fill="black"/>
<path d="M44.4351 17.4745H42.1493V3.55656C42.1493 2.6977 41.7611 2.31231 41.071 2.31231C40.4456 2.31231 39.7771 2.56557 38.9685 3.17117V17.4745H36.6826V0.198198H38.9685V1.32132C39.637 0.64965 40.4996 0 41.7611 0C42.9364 0 43.7127 0.517518 44.1332 1.40941C44.9527 0.671672 45.9123 0 47.2277 0C48.996 0 49.9018 1.15616 49.9018 3.03904V17.4635H47.6159V3.55656C47.6159 2.6977 47.2277 2.31231 46.5377 2.31231C45.9123 2.31231 45.2438 2.56557 44.4351 3.17117V17.4745Z" fill="black"/>
<path d="M0 7.72964V10.064L5.86559 15.9328V12.6846L2.02708 8.86377L5.86559 4.96587V1.78369L0 7.72964Z" fill="black"/>
<path d="M52.8008 4.96587L56.6393 8.86377L52.8008 12.6956V15.9328L58.6664 10.064V7.72964L52.8008 1.78369V4.96587Z" fill="black"/>
</svg>